HIERARCHY
ROOT hip
{
  OFFSET 0 0 0
  CHANNELS 6 Xposition Yposition Zposition Zrotation Yrotation Xrotation
  JOINT abdomen
  {
    OFFSET 0 20.6881 -0.73152
    CHANNELS 3 Zrotation Xrotation Yrotation
    JOINT chest
    {
      OFFSET 0 11.7043 -0.48768
      CHANNELS 3 Zrotation Xrotation Yrotation
      JOINT neck
      {
        OFFSET 0 22.1894 -2.19456
        CHANNELS 3 Zrotation Xrotation Yrotation
        JOINT head
        {
          OFFSET -0.24384 7.07133 1.2192
          CHANNELS 3 Zrotation Xrotation Yrotation
          JOINT leftEye
          {
            OFFSET 4.14528 8.04674 8.04672
            CHANNELS 3 Zrotation Xrotation Yrotation
            End Site
            {
              OFFSET 1 0 0
            }
          }
          JOINT rightEye
          {
            OFFSET -3.6576 8.04674 8.04672
            CHANNELS 3 Zrotation Xrotation Yrotation
            End Site
            {
              OFFSET 1 0 0
            }
          }
        }
      }
      JOINT rCollar
      {
        OFFSET -2.68224 19.2634 -4.8768
        CHANNELS 3 Zrotation Xrotation Yrotation
        JOINT rShldr
        {
          OFFSET -8.77824 -1.95073 1.46304
          CHANNELS 3 Zrotation Xrotation Yrotation
          JOINT rForeArm
          {
            OFFSET -28.1742 -1.7115 0.48768
            CHANNELS 3 Zrotation Xrotation Yrotation
            JOINT rHand
            {
              OFFSET -22.5879 0.773209 7.07136
              CHANNELS 3 Zrotation Xrotation Yrotation
              JOINT rThumb1
              {
                OFFSET -1.2192 -0.487915 3.41376
                CHANNELS 3 Zrotation Xrotation Yrotation
                JOINT rThumb2
                {
                  OFFSET -3.37035 -0.52449 3.41376
                  CHANNELS 3 Zrotation Xrotation Yrotation
                  End Site
                  {
                    OFFSET -1.78271 -1.18214 1.43049
                  }
                }
              }
              JOINT rIndex1
              {
                OFFSET -7.75947 0.938293 5.60832
                CHANNELS 3 Zrotation Xrotation Yrotation
                JOINT rIndex2
                {
                  OFFSET -2.54057 -0.884171 1.56538
                  CHANNELS 3 Zrotation Xrotation Yrotation
                  End Site
                  {
                    OFFSET -1.62519 -0.234802 1.16502
                  }
                }
              }
              JOINT rMid1
              {
                OFFSET -8.24714 1.18213 3.41376
                CHANNELS 3 Zrotation Xrotation Yrotation
                JOINT rMid2
                {
                  OFFSET -3.10165 -0.590103 1.0647
                  CHANNELS 3 Zrotation Xrotation Yrotation
                  End Site
                  {
                    OFFSET -2.48547 -0.328903 0.83742
                  }
                }
              }
              JOINT rRing1
              {
                OFFSET -8.82822 0.546677 1.51678
                CHANNELS 3 Zrotation Xrotation Yrotation
                JOINT rRing2
                {
                  OFFSET -2.60934 -0.819778 -0.0198488
                  CHANNELS 3 Zrotation Xrotation Yrotation
                  End Site
                  {
                    OFFSET -2.33842 -0.294052 0.168128
                  }
                }
              }
              JOINT rPinky1
              {
                OFFSET -8.27202 -0.0477905 -0.4584
                CHANNELS 3 Zrotation Xrotation Yrotation
                JOINT rPinky2
                {
                  OFFSET -1.82734 -0.647385 -0.700984
                  CHANNELS 3 Zrotation Xrotation Yrotation
                  End Site
                  {
                    OFFSET -1.69225 -0.51767 -0.607171
                  }
                }
              }
            }
          }
        }
      }
      JOINT lCollar
      {
        OFFSET 2.68224 19.2634 -4.8768
        CHANNELS 3 Zrotation Xrotation Yrotation
        JOINT lShldr
        {
          OFFSET 8.77824 -1.95073 1.46304
          CHANNELS 3 Zrotation Xrotation Yrotation
          JOINT lForeArm
          {
            OFFSET 28.1742 -1.7115 0.48768
            CHANNELS 3 Zrotation Xrotation Yrotation
            JOINT lHand
            {
              OFFSET 22.5879 0.773209 7.07136
              CHANNELS 3 Zrotation Xrotation Yrotation
              JOINT lThumb1
              {
                OFFSET 1.2192 -0.487915 3.41376
                CHANNELS 3 Zrotation Xrotation Yrotation
                JOINT lThumb2
                {
                  OFFSET 3.37035 -0.52449 3.41376
                  CHANNELS 3 Zrotation Xrotation Yrotation
                  End Site
                  {
                    OFFSET 1.78271 -1.18214 1.43049
                  }
                }
              }
              JOINT lIndex1
              {
                OFFSET 7.75947 0.938293 5.60832
                CHANNELS 3 Zrotation Xrotation Yrotation
                JOINT lIndex2
                {
                  OFFSET 2.54057 -0.884171 1.56538
                  CHANNELS 3 Zrotation Xrotation Yrotation
                  End Site
                  {
                    OFFSET 1.62519 -0.234802 1.16502
                  }
                }
              }
              JOINT lMid1
              {
                OFFSET 8.24714 1.18213 3.41376
                CHANNELS 3 Zrotation Xrotation Yrotation
                JOINT lMid2
                {
                  OFFSET 3.10165 -0.590103 1.0647
                  CHANNELS 3 Zrotation Xrotation Yrotation
                  End Site
                  {
                    OFFSET 2.48547 -0.328903 0.83742
                  }
                }
              }
              JOINT lRing1
              {
                OFFSET 8.82822 0.546677 1.51678
                CHANNELS 3 Zrotation Xrotation Yrotation
                JOINT lRing2
                {
                  OFFSET 2.60934 -0.819778 -0.0198488
                  CHANNELS 3 Zrotation Xrotation Yrotation
                  End Site
                  {
                    OFFSET 2.33842 -0.294052 0.168128
                  }
                }
              }
              JOINT lPinky1
              {
                OFFSET 8.27202 -0.0477905 -0.4584
                CHANNELS 3 Zrotation Xrotation Yrotation
                JOINT lPinky2
                {
                  OFFSET 1.82734 -0.647385 -0.700984
                  CHANNELS 3 Zrotation Xrotation Yrotation
                  End Site
                  {
                    OFFSET 1.69225 -0.51767 -0.607171
                  }
                }
              }
            }
          }
        }
      }
    }
  }
  JOINT rButtock
  {
    OFFSET -8.77824 4.35084 1.2192
    CHANNELS 3 Zrotation Xrotation Yrotation
    JOINT rThigh
    {
      OFFSET 0 -1.70687 -2.19456
      CHANNELS 3 Zrotation Xrotation Yrotation
      JOINT rShin
      {
        OFFSET 0 -36.8199 0.73152
        CHANNELS 3 Zrotation Xrotation Yrotation
        JOINT rFoot
        {
          OFFSET 0.73152 -45.1104 -5.12064
          CHANNELS 3 Zrotation Xrotation Yrotation
          End Site
          {
            OFFSET -1.1221 -3.69964 12.103
          }
        }
      }
    }
  }
  JOINT lButtock
  {
    OFFSET 8.77824 4.35084 1.2192
    CHANNELS 3 Zrotation Xrotation Yrotation
    JOINT lThigh
    {
      OFFSET 0 -1.70687 -2.19456
      CHANNELS 3 Zrotation Xrotation Yrotation
      JOINT lShin
      {
        OFFSET 0 -36.8199 0.73152
        CHANNELS 3 Zrotation Xrotation Yrotation
        JOINT lFoot
        {
          OFFSET -0.73152 -45.1104 -5.12064
          CHANNELS 3 Zrotation Xrotation Yrotation
          End Site
          {
            OFFSET 1.1221 -3.69964 12.103
          }
        }
      }
    }
  }
}
MOTION
Frames:	9
Frame Time:	0.00833333
33.857 80.4234 136.771 -6.3408 -83.0155 23.8246 -5.83549 -29.5192 1.30158 -1.34521 5.97887 0.286378 3.9444 -6.29617 2.2472 3.34532 7.03048 2.31106 -0.0 0.0 0.0 -0.0 0.0 0.0 -1.80605e-14 -1.34317e-12 -1.79145e-13 41.3086 -8.24493 16.7465 23.2944 -50.2411 -105.442 -1.71886 -33.8645 -5.41417 9.22751e-10 4.79801e-10 2.49225e-09 1.51781e-09 8.39449e-10 4.34797e-09 9.22749e-10 4.79805e-10 2.49224e-09 7.73091 5.47488 0.417314 9.22749e-10 4.79805e-10 2.49225e-09 2.90554 0.965183 0.102902 9.22756e-10 4.79805e-10 2.49225e-09 10.2786 0.731801 0.0259123 9.22744e-10 4.79805e-10 2.49225e-09 2.22167 -0.733487 -0.20892 -1.81196e-14 -1.34316e-12 -1.79462e-13 -78.8236 45.0422 6.07518 14.1193 -7.04931 -25.7933 2.7067 -41.4855 7.139 -1.00749e-09 -1.03095e-09 -3.68643e-09 -1.63211e-09 -1.82313e-09 -6.38866e-09 -1.0075e-09 -1.03095e-09 -3.68641e-09 -7.73091 5.47488 -0.417314 -1.00749e-09 -1.03095e-09 -3.68643e-09 -2.90554 0.965183 -0.102902 -1.0075e-09 -1.03095e-09 -3.68643e-09 -10.2786 0.731801 -0.0259123 -1.00749e-09 -1.03095e-09 -3.68643e-09 -2.22167 -0.733487 0.20892 -2.03217e-16 0.0 -3.88251e-19 0.40279 -22.3989 22.8902 -0.136718 21.042 0.718448 -7.95606 -8.3131 -24.2865 2.03217e-16 0.0 3.88251e-19 17.2381 -10.2816 0.447789 -0.0179101 13.1536 -0.364281 1.0532 -2.88324 -0.0464244
33.8605 80.4233 136.772 -6.3339 -83.0086 23.8195 -5.81838 -29.5536 1.27632 -1.36557 5.97044 0.278245 3.96707 -6.27427 2.27003 3.32421 7.16167 2.3399 -0.0 0.0 0.0 -0.0 0.0 0.0 -2.99432e-14 -9.04543e-13 -8.07341e-14 41.1117 -7.83486 16.6266 23.4429 -50.0691 -104.999 -1.16621 -28.2978 -4.34162 5.19827e-10 3.22184e-10 1.59533e-09 8.57139e-10 5.6512e-10 2.7798e-09 5.19824e-10 3.22188e-10 1.59531e-09 7.73091 5.47488 0.417314 5.19821e-10 3.22189e-10 1.59533e-09 2.90554 0.965183 0.102902 5.19832e-10 3.22188e-10 1.59532e-09 10.2786 0.731801 0.0259123 5.1982e-10 3.22189e-10 1.59532e-09 2.22167 -0.733487 -0.20892 -3.01166e-14 -9.04525e-13 -8.11783e-14 -78.8667 44.9661 6.13916 14.117 -7.04853 -25.7893 2.70138 -41.4537 7.13096 -5.41332e-10 -5.64477e-10 -1.99386e-09 -8.78507e-10 -1.00048e-09 -3.4534e-09 -5.41338e-10 -5.64474e-10 -1.99385e-09 -7.73091 5.47488 -0.417314 -5.41333e-10 -5.64475e-10 -1.99386e-09 -2.90554 0.965183 -0.102902 -5.41344e-10 -5.64476e-10 -1.99386e-09 -10.2786 0.731801 -0.0259123 -5.41329e-10 -5.64477e-10 -1.99387e-09 -2.22167 -0.733487 0.20892 -2.03217e-16 0.0 -3.88251e-19 0.402237 -22.4016 22.9037 -0.136359 21.0437 0.719196 -7.96322 -8.31043 -24.3085 2.03217e-16 0.0 3.88251e-19 17.2378 -10.2815 0.447811 -0.0178942 13.1535 -0.364144 1.05324 -2.88321 -0.046429
33.8652 80.4232 136.774 -6.3146 -83.0038 23.8011 -5.80651 -29.5833 1.25817 -1.38882 5.96687 0.272869 3.99116 -6.27583 2.28903 3.32285 7.3152 2.35665 -0.0 0.0 0.0 -0.0 0.0 0.0 -4.36147e-14 -6.80847e-13 -2.04251e-14 40.9254 -7.45043 16.4615 23.6545 -49.8292 -104.36 -0.633292 -22.0064 -3.25619 2.87918e-10 1.72847e-10 8.72836e-10 4.81381e-10 3.05585e-10 1.51734e-09 2.87915e-10 1.7285e-10 8.72824e-10 7.73091 5.47488 0.417314 2.8791e-10 1.72852e-10 8.7284e-10 2.90554 0.965183 0.102902 2.87924e-10 1.72851e-10 8.72828e-10 10.2786 0.731801 0.0259123 2.87912e-10 1.72851e-10 8.7283e-10 2.22167 -0.733487 -0.20892 -4.38536e-14 -6.80829e-13 -2.09221e-14 -78.8858 44.9193 6.18237 14.1128 -7.04585 -25.7814 2.70098 -41.4514 7.13037 -1.25016e-10 -2.23451e-10 -7.59577e-10 -1.96896e-10 -3.96946e-10 -1.31066e-09 -1.25022e-10 -2.23449e-10 -7.59564e-10 -7.73091 5.47488 -0.417314 -1.25017e-10 -2.23449e-10 -7.59571e-10 -2.90554 0.965183 -0.102902 -1.25028e-10 -2.2345e-10 -7.59575e-10 -10.2786 0.731801 -0.0259123 -1.25012e-10 -2.23452e-10 -7.5958e-10 -2.22167 -0.733487 0.20892 -2.03217e-16 0.0 -3.88251e-19 0.400946 -22.4035 22.9142 -0.136019 21.0459 0.719941 -7.96819 -8.30649 -24.3257 2.03217e-16 0.0 3.88251e-19 17.2375 -10.2817 0.447848 -0.0178802 13.1538 -0.364036 1.05327 -2.88336 -0.0464272
33.8698 80.4233 136.775 -6.2936 -83.0022 23.7782 -5.80116 -29.6069 1.2477 -1.41642 5.96927 0.270635 4.01941 -6.31022 2.30405 3.34324 7.50389 2.35869 -0.0 0.0 0.0 -0.0 0.0 0.0 -6.66906e-14 -8.65224e-13 -2.19572e-14 40.7333 -7.0283 16.2144 23.9466 -49.4829 -103.458 -0.108561 -14.3696 -2.04528 3.30405e-10 1.02406e-11 3.51088e-10 5.64781e-10 2.37579e-11 6.07063e-10 3.30405e-10 1.02408e-11 3.51075e-10 7.73091 5.47488 0.417314 3.30398e-10 1.02436e-11 3.51092e-10 2.90554 0.965183 0.102902 3.30411e-10 1.02436e-11 3.51081e-10 10.2786 0.731801 0.0259123 3.30399e-10 1.02435e-11 3.51084e-10 2.22167 -0.733487 -0.20892 -6.6922e-14 -8.65209e-13 -2.23854e-14 -78.8745 44.9173 6.20205 14.1079 -7.04214 -25.7717 2.70843 -41.4961 7.14164 2.94769e-10 -6.21978e-11 -1.8002e-10 5.10755e-10 -1.05783e-10 -2.97779e-10 2.94764e-10 -6.21962e-11 -1.80009e-10 -7.73091 5.47488 -0.417314 2.94768e-10 -6.21972e-11 -1.80019e-10 -2.90554 0.965183 -0.102902 2.94759e-10 -6.21966e-11 -1.80018e-10 -10.2786 0.731801 -0.0259123 2.94776e-10 -6.21977e-11 -1.80024e-10 -2.22167 -0.733487 0.20892 -2.03217e-16 0.0 -3.88251e-19 0.398892 -22.4044 22.9219 -0.135691 21.049 0.720799 -7.97087 -8.30071 -24.3383 2.03217e-16 0.0 3.88251e-19 17.2371 -10.2821 0.447906 -0.017869 13.1546 -0.363969 1.05325 -2.88377 -0.0464157
33.8745 80.4235 136.776 -6.2709 -83.0017 23.7519 -5.80053 -29.627 1.24161 -1.44791 5.97656 0.270367 4.05188 -6.37222 2.31715 3.38097 7.7273 2.35066 -0.0 0.0 0.0 -0.0 0.0 0.0 -9.79125e-14 -1.28578e-12 -5.58026e-14 40.5308 -6.53506 15.8966 24.3007 -49.0224 -102.327 0.189379 -5.13762 -0.703416 5.22587e-10 -1.83566e-10 -1.47118e-10 9.00256e-10 -3.11928e-10 -2.60815e-10 5.22593e-10 -1.83569e-10 -1.47133e-10 7.73091 5.47488 0.417314 5.22582e-10 -1.83565e-10 -1.47114e-10 2.90554 0.965183 0.102902 5.22593e-10 -1.83564e-10 -1.47122e-10 10.2786 0.731801 0.0259123 5.22582e-10 -1.83565e-10 -1.47119e-10 2.22167 -0.733487 -0.20892 -9.80956e-14 -1.28577e-12 -5.60852e-14 -78.8397 44.9478 6.20334 14.1013 -7.03665 -25.7582 2.72172 -41.5754 7.16169 7.74585e-10 2.82355e-11 1.39632e-10 1.33014e-09 6.40009e-11 2.68301e-10 7.74579e-10 2.82361e-11 1.3964e-10 -7.73091 5.47488 -0.417314 7.74583e-10 2.82337e-11 1.39624e-10 -2.90554 0.965183 -0.102902 7.74577e-10 2.82368e-11 1.39634e-10 -10.2786 0.731801 -0.0259123 7.74594e-10 2.82366e-11 1.39625e-10 -2.22167 -0.733487 0.20892 -2.03217e-16 0.0 -3.88251e-19 0.396534 -22.4049 22.9281 -0.135366 21.0527 0.721744 -7.97189 -8.29336 -24.3476 2.03217e-16 0.0 3.88251e-19 17.2367 -10.2828 0.447979 -0.0178603 13.1558 -0.363935 1.05322 -2.88435 -0.0463977
33.8792 80.424 136.777 -6.2561 -83.0041 23.7313 -5.80301 -29.6447 1.24111 -1.48033 5.98709 0.272083 4.08244 -6.44466 2.32713 3.43524 7.95694 2.3349 -0.0 0.0 0.0 -0.0 0.0 0.0 -1.21089e-13 -1.63687e-12 -9.06947e-14 40.3614 -6.13714 15.5824 24.6571 -48.5145 -101.138 0.126534 4.09972 0.587144 7.25384e-10 -3.46639e-10 -5.48071e-10 1.25106e-09 -5.94356e-10 -9.58545e-10 7.25395e-10 -3.46644e-10 -5.48087e-10 7.73091 5.47488 0.417314 7.25381e-10 -3.4664e-10 -5.48067e-10 2.90554 0.965183 0.102902 7.2539e-10 -3.46638e-10 -5.48072e-10 10.2786 0.731801 0.0259123 7.25379e-10 -3.46639e-10 -5.48067e-10 2.22167 -0.733487 -0.20892 -1.21213e-13 -1.63687e-12 -9.08271e-14 -78.7914 44.9849 6.1889 14.0908 -7.02802 -25.737 2.73586 -41.6594 7.18297 1.15206e-09 8.83593e-11 3.45263e-10 1.97642e-09 1.78966e-10 6.34258e-10 1.15205e-09 8.83593e-11 3.45271e-10 -7.73091 5.47488 -0.417314 1.15206e-09 8.83552e-11 3.45248e-10 -2.90554 0.965183 -0.102902 1.15205e-09 8.83606e-11 3.45266e-10 -10.2786 0.731801 -0.0259123 1.15207e-09 8.83614e-11 3.45255e-10 -2.22167 -0.733487 0.20892 -2.03217e-16 0.0 -3.88251e-19 0.393585 -22.4048 22.9315 -0.135062 21.0564 0.722534 -7.97105 -8.2855 -24.3523 2.03217e-16 0.0 3.88251e-19 17.2362 -10.2835 0.448055 -0.0178522 13.1572 -0.36391 1.05318 -2.88497 -0.0463782
33.8839 80.4247 136.778 -6.2486 -83.0088 23.7163 -5.80701 -29.6608 1.24742 -1.51073 5.99923 0.275797 4.10494 -6.51035 2.33275 3.5052 8.16433 2.31374 -0.0 0.0 0.0 -0.0 0.0 0.0 -1.20028e-13 -1.61284e-12 -9.53669e-14 40.2629 -6.00267 15.3441 24.9712 -48.0361 -100.047 -0.172319 11.7479 1.67483 7.99714e-10 -4.17044e-10 -7.78059e-10 1.38046e-09 -7.1641e-10 -1.35837e-09 7.99728e-10 -4.1705e-10 -7.78075e-10 7.73091 5.47488 0.417314 7.99713e-10 -4.17046e-10 -7.78056e-10 2.90554 0.965183 0.102902 7.9972e-10 -4.17043e-10 -7.78058e-10 10.2786 0.731801 0.0259123 7.9971e-10 -4.17045e-10 -7.78053e-10 2.22167 -0.733487 -0.20892 -1.20112e-13 -1.61284e-12 -9.54166e-14 -78.7396 45.0025 6.16136 14.0747 -7.01486 -25.7044 2.74574 -41.7177 7.19781 1.26482e-09 1.58684e-10 5.8276e-10 2.16474e-09 3.05674e-10 1.04677e-09 1.26481e-09 1.58685e-10 5.8277e-10 -7.73091 5.47488 -0.417314 1.26481e-09 1.58679e-10 5.82741e-10 -2.90554 0.965183 -0.102902 1.26481e-09 1.58686e-10 5.82763e-10 -10.2786 0.731801 -0.0259123 1.26483e-09 1.58687e-10 5.82751e-10 -2.22167 -0.733487 0.20892 -2.03217e-16 0.0 -3.88251e-19 0.389745 -22.4041 22.9308 -0.134798 21.0591 0.72293 -7.96813 -8.27814 -24.3512 2.03217e-16 0.0 3.88251e-19 17.2358 -10.2841 0.448122 -0.0178432 13.1583 -0.363872 1.05315 -2.8855 -0.0463622
33.8892 80.4251 136.778 -6.2484 -83.0156 23.7074 -5.81394 -29.6763 1.26476 -1.54469 6.01407 0.283122 4.1229 -6.5698 2.33219 3.59932 8.34922 2.2812 -0.0 0.0 0.0 -0.0 0.0 0.0 -7.31106e-14 -8.92185e-13 -4.62225e-14 40.2677 -6.26822 15.2004 25.2697 -47.5734 -98.975 -0.463933 17.6998 2.55812 6.43703e-10 -3.20801e-10 -7.54921e-10 1.1128e-09 -5.50116e-10 -1.31639e-09 6.43714e-10 -3.20806e-10 -7.54936e-10 7.73091 5.47488 0.417314 6.43702e-10 -3.20802e-10 -7.54918e-10 2.90554 0.965183 0.102902 6.43708e-10 -3.208e-10 -7.5492e-10 10.2786 0.731801 0.0259123 6.43699e-10 -3.20801e-10 -7.54914e-10 2.22167 -0.733487 -0.20892 -7.31873e-14 -8.92182e-13 -4.62947e-14 -78.6754 44.9876 6.11347 14.0488 -6.99396 -25.6522 2.74884 -41.736 7.20246 8.95216e-10 2.58399e-10 9.14135e-10 1.51759e-09 4.72911e-10 1.60581e-09 8.95211e-10 2.58401e-10 9.14152e-10 -7.73091 5.47488 -0.417314 8.95213e-10 2.58395e-10 9.14119e-10 -2.90554 0.965183 -0.102902 8.95212e-10 2.58401e-10 9.14138e-10 -10.2786 0.731801 -0.0259123 8.95227e-10 2.58402e-10 9.14128e-10 -2.22167 -0.733487 0.20892 -2.03217e-16 0.0 -3.88251e-19 0.384433 -22.4027 22.9242 -0.134572 21.0605 0.722762 -7.96254 -8.27118 -24.3429 2.03217e-16 0.0 3.88251e-19 17.2355 -10.2846 0.448175 -0.0178332 13.1592 -0.363816 1.05314 -2.88589 -0.0463518
33.8938 80.4265 136.778 -6.2428 -83.025 23.6933 -5.82403 -29.6902 1.29119 -1.58169 6.03197 0.293514 4.13786 -6.63048 2.32661 3.71531 8.52434 2.2382 -0.0 0.0 0.0 -0.0 0.0 0.0 5.25996e-15 2.82083e-13 3.49768e-14 40.3442 -6.81481 15.113 25.5619 -47.0945 -97.8834 -0.718785 22.6939 3.35087 3.53121e-10 -1.10095e-10 -5.38804e-10 6.11844e-10 -1.85739e-10 -9.37339e-10 3.53127e-10 -1.10098e-10 -5.38817e-10 7.73091 5.47488 0.417314 3.53119e-10 -1.10095e-10 -5.38801e-10 2.90554 0.965183 0.102902 3.53127e-10 -1.10094e-10 -5.38805e-10 10.2786 0.731801 0.0259123 3.53118e-10 -1.10095e-10 -5.38798e-10 2.22167 -0.733487 -0.20892 5.17653e-15 2.82092e-13 3.48215e-14 -78.5975 44.9559 6.04653 14.0154 -6.96698 -25.5849 2.74823 -41.7323 7.20153 1.87968e-10 3.63102e-10 1.25388e-09 2.87414e-10 6.415e-10 2.1684e-09 1.87964e-10 3.63108e-10 1.25391e-09 -7.73091 5.47488 -0.417314 1.87966e-10 3.63101e-10 1.25387e-09 -2.90554 0.965183 -0.102902 1.87963e-10 3.63105e-10 1.25388e-09 -10.2786 0.731801 -0.0259123 1.87976e-10 3.63104e-10 1.25388e-09 -2.22167 -0.733487 0.20892 -2.03217e-16 0.0 -3.88251e-19 0.377972 -22.4007 22.9128 -0.134376 21.0611 0.722193 -7.95458 -8.26419 -24.3283 2.03217e-16 0.0 3.88251e-19 17.2352 -10.285 0.448222 -0.017823 13.16 -0.363755 1.05315 -2.88622 -0.046344
